<?xml version="1.0" encoding="UTF-8" standalone="no"?>
<!DOCTYPE svg PUBLIC "-//W3C//DTD SVG 1.1//EN"
 "http://www.w3.org/Graphics/SVG/1.1/DTD/svg11.dtd">
<!-- Generated by graphviz version 2.43.0 (0)
 -->
<!-- Title: G Pages: 1 -->
<svg width="6506pt" height="2623pt"
 viewBox="0.00 0.00 6506.04 2623.43" xmlns="http://www.w3.org/2000/svg" xmlns:xlink="http://www.w3.org/1999/xlink">
<g id="graph0" class="graph" transform="scale(1 1) rotate(0) translate(4 2619.43)">
<title>G</title>
<polygon fill="white" stroke="transparent" points="-4,4 -4,-2619.43 6502.04,-2619.43 6502.04,4 -4,4"/>
<!-- R/create_configs.R -->
<g id="node1" class="node">
<title>R/create_configs.R</title>
<polygon fill="none" stroke="black" points="4344.09,-1437.51 4195.05,-1437.51 4149,-1579.22 4102.95,-1437.51 3953.91,-1437.51 4074.48,-1349.93 4028.43,-1208.23 4149,-1295.81 4269.57,-1208.23 4223.52,-1349.93 4344.09,-1437.51"/>
<text text-anchor="middle" x="4149" y="-1390.02" font-family="Times,serif" font-size="14.00">R/create_configs.R</text>
</g>
<!-- configs/config1.csv -->
<g id="node3" class="node">
<title>configs/config1.csv</title>
<ellipse fill="none" stroke="black" cx="4684" cy="-1130.57" rx="98.28" ry="18"/>
<text text-anchor="middle" x="4684" y="-1126.87" font-family="Times,serif" font-size="14.00">configs/config1.csv</text>
</g>
<!-- R/create_configs.R&#45;&gt;configs/config1.csv -->
<g id="edge2" class="edge">
<title>R/create_configs.R&#45;&gt;configs/config1.csv</title>
<path fill="none" stroke="black" d="M4228.81,-1353.77C4344.04,-1297.52 4552.94,-1195.55 4641.98,-1152.08"/>
<polygon fill="black" stroke="black" points="4643.77,-1155.1 4651.22,-1147.57 4640.7,-1148.81 4643.77,-1155.1"/>
</g>
<!-- configs/config2.csv -->
<g id="node4" class="node">
<title>configs/config2.csv</title>
<ellipse fill="none" stroke="black" cx="3614" cy="-1130.57" rx="98.28" ry="18"/>
<text text-anchor="middle" x="3614" y="-1126.87" font-family="Times,serif" font-size="14.00">configs/config2.csv</text>
</g>
<!-- R/create_configs.R&#45;&gt;configs/config2.csv -->
<g id="edge3" class="edge">
<title>R/create_configs.R&#45;&gt;configs/config2.csv</title>
<path fill="none" stroke="black" d="M4069.19,-1353.77C3953.96,-1297.52 3745.06,-1195.55 3656.02,-1152.08"/>
<polygon fill="black" stroke="black" points="3657.3,-1148.81 3646.78,-1147.57 3654.23,-1155.1 3657.3,-1148.81"/>
</g>
<!-- configs/config3.csv -->
<g id="node5" class="node">
<title>configs/config3.csv</title>
<ellipse fill="none" stroke="black" cx="3828" cy="-1130.57" rx="98.28" ry="18"/>
<text text-anchor="middle" x="3828" y="-1126.87" font-family="Times,serif" font-size="14.00">configs/config3.csv</text>
</g>
<!-- R/create_configs.R&#45;&gt;configs/config3.csv -->
<g id="edge4" class="edge">
<title>R/create_configs.R&#45;&gt;configs/config3.csv</title>
<path fill="none" stroke="black" d="M4066.33,-1325.47C3997.29,-1269.3 3902.89,-1192.5 3856.33,-1154.62"/>
<polygon fill="black" stroke="black" points="3858.45,-1151.83 3848.48,-1148.23 3854.03,-1157.26 3858.45,-1151.83"/>
</g>
<!-- configs/config4.csv -->
<g id="node6" class="node">
<title>configs/config4.csv</title>
<ellipse fill="none" stroke="black" cx="4042" cy="-1130.57" rx="98.28" ry="18"/>
<text text-anchor="middle" x="4042" y="-1126.87" font-family="Times,serif" font-size="14.00">configs/config4.csv</text>
</g>
<!-- R/create_configs.R&#45;&gt;configs/config4.csv -->
<g id="edge5" class="edge">
<title>R/create_configs.R&#45;&gt;configs/config4.csv</title>
<path fill="none" stroke="black" d="M4092.37,-1254.5C4077.26,-1217.62 4062.48,-1181.56 4052.89,-1158.14"/>
<polygon fill="black" stroke="black" points="4056.01,-1156.53 4048.98,-1148.61 4049.53,-1159.19 4056.01,-1156.53"/>
</g>
<!-- configs/config5.csv -->
<g id="node7" class="node">
<title>configs/config5.csv</title>
<ellipse fill="none" stroke="black" cx="4256" cy="-1130.57" rx="98.28" ry="18"/>
<text text-anchor="middle" x="4256" y="-1126.87" font-family="Times,serif" font-size="14.00">configs/config5.csv</text>
</g>
<!-- R/create_configs.R&#45;&gt;configs/config5.csv -->
<g id="edge6" class="edge">
<title>R/create_configs.R&#45;&gt;configs/config5.csv</title>
<path fill="none" stroke="black" d="M4205.63,-1254.5C4220.74,-1217.62 4235.52,-1181.56 4245.11,-1158.14"/>
<polygon fill="black" stroke="black" points="4248.47,-1159.19 4249.02,-1148.61 4241.99,-1156.53 4248.47,-1159.19"/>
</g>
<!-- configs/config6.csv -->
<g id="node8" class="node">
<title>configs/config6.csv</title>
<ellipse fill="none" stroke="black" cx="4470" cy="-1130.57" rx="98.28" ry="18"/>
<text text-anchor="middle" x="4470" y="-1126.87" font-family="Times,serif" font-size="14.00">configs/config6.csv</text>
</g>
<!-- R/create_configs.R&#45;&gt;configs/config6.csv -->
<g id="edge7" class="edge">
<title>R/create_configs.R&#45;&gt;configs/config6.csv</title>
<path fill="none" stroke="black" d="M4231.67,-1325.47C4300.71,-1269.3 4395.11,-1192.5 4441.67,-1154.62"/>
<polygon fill="black" stroke="black" points="4443.97,-1157.26 4449.52,-1148.23 4439.55,-1151.83 4443.97,-1157.26"/>
</g>
<!-- data/param_samples.csv -->
<g id="node2" class="node">
<title>data/param_samples.csv</title>
<ellipse fill="none" stroke="black" cx="4149" cy="-1656.87" rx="124.28" ry="18"/>
<text text-anchor="middle" x="4149" y="-1653.17" font-family="Times,serif" font-size="14.00">data/param_samples.csv</text>
</g>
<!-- data/param_samples.csv&#45;&gt;R/create_configs.R -->
<g id="edge1" class="edge">
<title>data/param_samples.csv&#45;&gt;R/create_configs.R</title>
<path fill="none" stroke="black" d="M4149,-1638.74C4149,-1626.79 4149,-1609.44 4149,-1589.42"/>
<polygon fill="black" stroke="black" points="4152.5,-1589.38 4149,-1579.38 4145.5,-1589.38 4152.5,-1589.38"/>
</g>
<!-- R/vis_mcmc_samps.R -->
<g id="node36" class="node">
<title>R/vis_mcmc_samps.R</title>
<polygon fill="none" stroke="black" points="2369.83,-1443.13 2201.89,-1443.13 2150,-1603.02 2098.11,-1443.13 1930.17,-1443.13 2066.03,-1344.31 2014.14,-1184.42 2150,-1283.24 2285.86,-1184.42 2233.97,-1344.31 2369.83,-1443.13"/>
<text text-anchor="middle" x="2150" y="-1390.02" font-family="Times,serif" font-size="14.00">R/vis_mcmc_samps.R</text>
</g>
<!-- data/param_samples.csv&#45;&gt;R/vis_mcmc_samps.R -->
<g id="edge56" class="edge">
<title>data/param_samples.csv&#45;&gt;R/vis_mcmc_samps.R</title>
<path fill="none" stroke="black" d="M4060.2,-1644.27C3759.07,-1604.93 2771.88,-1475.96 2347.17,-1420.48"/>
<polygon fill="black" stroke="black" points="2347.61,-1417.01 2337.24,-1419.18 2346.7,-1423.95 2347.61,-1417.01"/>
</g>
<!-- R/run_conditional_likes.R -->
<g id="node13" class="node">
<title>R/run_conditional_likes.R</title>
<polygon fill="none" stroke="black" points="3795.75,-889.15 3598.85,-889.15 3538,-1076.33 3477.15,-889.15 3280.25,-889.15 3439.55,-773.48 3378.7,-586.31 3538,-701.98 3697.3,-586.31 3636.45,-773.48 3795.75,-889.15"/>
<text text-anchor="middle" x="3538" y="-827.62" font-family="Times,serif" font-size="14.00">R/run_conditional_likes.R</text>
</g>
<!-- configs/config1.csv&#45;&gt;R/run_conditional_likes.R -->
<g id="edge13" class="edge">
<title>configs/config1.csv&#45;&gt;R/run_conditional_likes.R</title>
<path fill="none" stroke="black" d="M4612.64,-1118.16C4600.74,-1116.28 4588.52,-1114.36 4577,-1112.57 4471.72,-1096.21 4443.9,-1100.15 4340,-1076.57 4119.24,-1026.47 3870.71,-947.09 3709.63,-892.5"/>
<polygon fill="black" stroke="black" points="3710.7,-889.17 3700.11,-889.27 3708.45,-895.8 3710.7,-889.17"/>
</g>
<!-- R/run_state_ests.R -->
<g id="node25" class="node">
<title>R/run_state_ests.R</title>
<polygon fill="none" stroke="black" points="4741.21,-875.46 4591.32,-875.46 4545,-1018.3 4498.68,-875.46 4348.79,-875.46 4470.06,-787.17 4423.74,-644.33 4545,-732.61 4666.26,-644.33 4619.94,-787.17 4741.21,-875.46"/>
<text text-anchor="middle" x="4545" y="-827.62" font-family="Times,serif" font-size="14.00">R/run_state_ests.R</text>
</g>
<!-- configs/config1.csv&#45;&gt;R/run_state_ests.R -->
<g id="edge31" class="edge">
<title>configs/config1.csv&#45;&gt;R/run_state_ests.R</title>
<path fill="none" stroke="black" d="M4675.93,-1112.3C4658.6,-1075.26 4616.88,-986.03 4585.15,-918.17"/>
<polygon fill="black" stroke="black" points="4588.15,-916.33 4580.74,-908.75 4581.81,-919.29 4588.15,-916.33"/>
</g>
<!-- configs/config2.csv&#45;&gt;R/run_conditional_likes.R -->
<g id="edge14" class="edge">
<title>configs/config2.csv&#45;&gt;R/run_conditional_likes.R</title>
<path fill="none" stroke="black" d="M3609.59,-1112.3C3602.79,-1085.71 3589.11,-1032.2 3575.51,-979.03"/>
<polygon fill="black" stroke="black" points="3578.84,-977.93 3572.97,-969.11 3572.06,-979.66 3578.84,-977.93"/>
</g>
<!-- configs/config2.csv&#45;&gt;R/run_state_ests.R -->
<g id="edge32" class="edge">
<title>configs/config2.csv&#45;&gt;R/run_state_ests.R</title>
<path fill="none" stroke="black" d="M3667.71,-1115.41C3706.1,-1105.1 3758.9,-1090.57 3805,-1076.57 4018.13,-1011.87 4263.18,-929.37 4410.95,-878.72"/>
<polygon fill="black" stroke="black" points="4412.22,-881.98 4420.54,-875.43 4409.95,-875.36 4412.22,-881.98"/>
</g>
<!-- configs/config3.csv&#45;&gt;R/run_conditional_likes.R -->
<g id="edge15" class="edge">
<title>configs/config3.csv&#45;&gt;R/run_conditional_likes.R</title>
<path fill="none" stroke="black" d="M3811.58,-1112.74C3772.56,-1072.74 3672.51,-970.19 3604.84,-900.83"/>
<polygon fill="black" stroke="black" points="3607.07,-898.1 3597.58,-893.39 3602.06,-902.99 3607.07,-898.1"/>
</g>
<!-- configs/config3.csv&#45;&gt;R/run_state_ests.R -->
<g id="edge33" class="edge">
<title>configs/config3.csv&#45;&gt;R/run_state_ests.R</title>
<path fill="none" stroke="black" d="M3865.79,-1113.9C3970.36,-1070.55 4266.65,-947.71 4431.24,-879.48"/>
<polygon fill="black" stroke="black" points="4433.02,-882.53 4440.92,-875.47 4430.34,-876.06 4433.02,-882.53"/>
</g>
<!-- configs/config4.csv&#45;&gt;R/run_conditional_likes.R -->
<g id="edge16" class="edge">
<title>configs/config4.csv&#45;&gt;R/run_conditional_likes.R</title>
<path fill="none" stroke="black" d="M4014.18,-1113.17C3944.83,-1072.26 3761.34,-964.04 3643.45,-894.51"/>
<polygon fill="black" stroke="black" points="3645.11,-891.43 3634.72,-889.36 3641.56,-897.46 3645.11,-891.43"/>
</g>
<!-- configs/config4.csv&#45;&gt;R/run_state_ests.R -->
<g id="edge34" class="edge">
<title>configs/config4.csv&#45;&gt;R/run_state_ests.R</title>
<path fill="none" stroke="black" d="M4069.76,-1113.17C4143.73,-1069.45 4347.76,-948.88 4462.99,-880.78"/>
<polygon fill="black" stroke="black" points="4464.99,-883.67 4471.82,-875.56 4461.43,-877.64 4464.99,-883.67"/>
</g>
<!-- configs/config5.csv&#45;&gt;R/run_conditional_likes.R -->
<g id="edge17" class="edge">
<title>configs/config5.csv&#45;&gt;R/run_conditional_likes.R</title>
<path fill="none" stroke="black" d="M4218.16,-1113.9C4120.15,-1073.33 3853.97,-963.13 3685.13,-893.23"/>
<polygon fill="black" stroke="black" points="3686.24,-889.9 3675.66,-889.31 3683.57,-896.37 3686.24,-889.9"/>
</g>
<!-- configs/config5.csv&#45;&gt;R/run_state_ests.R -->
<g id="edge35" class="edge">
<title>configs/config5.csv&#45;&gt;R/run_state_ests.R</title>
<path fill="none" stroke="black" d="M4272.37,-1112.74C4314.07,-1069.84 4425.75,-954.97 4492.53,-886.29"/>
<polygon fill="black" stroke="black" points="4495.18,-888.58 4499.64,-878.97 4490.16,-883.7 4495.18,-888.58"/>
</g>
<!-- configs/config6.csv&#45;&gt;R/run_conditional_likes.R -->
<g id="edge18" class="edge">
<title>configs/config6.csv&#45;&gt;R/run_conditional_likes.R</title>
<path fill="none" stroke="black" d="M4423.14,-1114.63C4297.3,-1074.49 3946.58,-962.63 3726.26,-892.36"/>
<polygon fill="black" stroke="black" points="3727.11,-888.96 3716.52,-889.25 3724.99,-895.63 3727.11,-888.96"/>
</g>
<!-- configs/config6.csv&#45;&gt;R/run_state_ests.R -->
<g id="edge36" class="edge">
<title>configs/config6.csv&#45;&gt;R/run_state_ests.R</title>
<path fill="none" stroke="black" d="M4474.36,-1112.3C4482.43,-1080.31 4500.32,-1009.39 4516.08,-946.93"/>
<polygon fill="black" stroke="black" points="4519.54,-947.54 4518.59,-936.99 4512.75,-945.83 4519.54,-947.54"/>
</g>
<!-- R/prices_to_returns.R -->
<g id="node9" class="node">
<title>R/prices_to_returns.R</title>
<polygon fill="none" stroke="black" points="5150.68,-2380.78 4979.8,-2380.78 4927,-2543.32 4874.2,-2380.78 4703.32,-2380.78 4841.56,-2280.32 4788.76,-2117.77 4927,-2218.23 5065.24,-2117.77 5012.44,-2280.32 5150.68,-2380.78"/>
<text text-anchor="middle" x="4927" y="-2326.85" font-family="Times,serif" font-size="14.00">R/prices_to_returns.R</text>
</g>
<!-- data/SPY_returns.csv -->
<g id="node11" class="node">
<title>data/SPY_returns.csv</title>
<ellipse fill="none" stroke="black" cx="176" cy="-1130.57" rx="109.68" ry="18"/>
<text text-anchor="middle" x="176" y="-1126.87" font-family="Times,serif" font-size="14.00">data/SPY_returns.csv</text>
</g>
<!-- R/prices_to_returns.R&#45;&gt;data/SPY_returns.csv -->
<g id="edge9" class="edge">
<title>R/prices_to_returns.R&#45;&gt;data/SPY_returns.csv</title>
<path fill="none" stroke="black" d="M4777.55,-2326.69C4011.24,-2311.09 542.3,-2228.78 120,-2009.66 44.71,-1970.6 0,-1946.09 0,-1861.27 0,-1861.27 0,-1861.27 0,-1655.87 0,-1454.68 117.91,-1231.58 160.71,-1157.23"/>
<polygon fill="black" stroke="black" points="163.78,-1158.92 165.78,-1148.52 157.72,-1155.41 163.78,-1158.92"/>
</g>
<!-- data/SPY_returns_estimation.csv -->
<g id="node12" class="node">
<title>data/SPY_returns_estimation.csv</title>
<ellipse fill="none" stroke="black" cx="4995" cy="-2063.66" rx="163.27" ry="18"/>
<text text-anchor="middle" x="4995" y="-2059.96" font-family="Times,serif" font-size="14.00">data/SPY_returns_estimation.csv</text>
</g>
<!-- R/prices_to_returns.R&#45;&gt;data/SPY_returns_estimation.csv -->
<g id="edge10" class="edge">
<title>R/prices_to_returns.R&#45;&gt;data/SPY_returns_estimation.csv</title>
<path fill="none" stroke="black" d="M4962.2,-2192.45C4972.08,-2153.96 4981.82,-2116 4988.09,-2091.58"/>
<polygon fill="black" stroke="black" points="4991.54,-2092.23 4990.63,-2081.68 4984.76,-2090.49 4991.54,-2092.23"/>
</g>
<!-- data/SPY.csv -->
<g id="node10" class="node">
<title>data/SPY.csv</title>
<ellipse fill="none" stroke="black" cx="5331" cy="-2597.43" rx="69.59" ry="18"/>
<text text-anchor="middle" x="5331" y="-2593.73" font-family="Times,serif" font-size="14.00">data/SPY.csv</text>
</g>
<!-- data/SPY.csv&#45;&gt;R/prices_to_returns.R -->
<g id="edge8" class="edge">
<title>data/SPY.csv&#45;&gt;R/prices_to_returns.R</title>
<path fill="none" stroke="black" d="M5276.92,-2586.06C5241.99,-2577.86 5196.43,-2564.26 5160,-2543.43 5092.41,-2504.8 5027.93,-2443.6 4984.01,-2396.88"/>
<polygon fill="black" stroke="black" points="4986.52,-2394.44 4977.14,-2389.51 4981.4,-2399.21 4986.52,-2394.44"/>
</g>
<!-- R/update_csv.R -->
<g id="node33" class="node">
<title>R/update_csv.R</title>
<polygon fill="none" stroke="black" points="5493.14,-2366.96 5369.28,-2366.96 5331,-2484.79 5292.72,-2366.96 5168.86,-2366.96 5269.07,-2294.13 5230.79,-2176.3 5331,-2249.13 5431.21,-2176.3 5392.93,-2294.13 5493.14,-2366.96"/>
<text text-anchor="middle" x="5331" y="-2326.85" font-family="Times,serif" font-size="14.00">R/update_csv.R</text>
</g>
<!-- data/SPY.csv&#45;&gt;R/update_csv.R -->
<g id="edge46" class="edge">
<title>data/SPY.csv&#45;&gt;R/update_csv.R</title>
<path fill="none" stroke="black" d="M5327.44,-2579.05C5325.48,-2556.89 5324.42,-2516.39 5324.27,-2474.48"/>
<polygon fill="black" stroke="black" points="5327.77,-2474.37 5324.25,-2464.38 5320.77,-2474.39 5327.77,-2474.37"/>
</g>
<!-- data/SPY_returns.csv&#45;&gt;R/run_conditional_likes.R -->
<g id="edge12" class="edge">
<title>data/SPY_returns.csv&#45;&gt;R/run_conditional_likes.R</title>
<path fill="none" stroke="black" d="M253.69,-1117.84C267.44,-1115.94 281.63,-1114.1 295,-1112.57 1438.38,-981.6 2814.89,-881.65 3330.05,-846.25"/>
<polygon fill="black" stroke="black" points="3330.46,-849.73 3340.2,-845.55 3329.98,-842.75 3330.46,-849.73"/>
</g>
<!-- data/SPY_returns.csv&#45;&gt;R/run_state_ests.R -->
<g id="edge38" class="edge">
<title>data/SPY_returns.csv&#45;&gt;R/run_state_ests.R</title>
<path fill="none" stroke="black" d="M250.74,-1117.36C265.38,-1115.4 280.64,-1113.66 295,-1112.57 683.89,-1082.93 3420.25,-1140.45 3805,-1076.57 4037.39,-1037.99 4296,-938.89 4437.65,-879.45"/>
<polygon fill="black" stroke="black" points="4439.37,-882.52 4447.23,-875.41 4436.65,-876.07 4439.37,-882.52"/>
</g>
<!-- R/run_mcmc.R -->
<g id="node22" class="node">
<title>R/run_mcmc.R</title>
<polygon fill="none" stroke="black" points="5152.16,-1895.51 5032.1,-1895.51 4995,-2009.56 4957.9,-1895.51 4837.84,-1895.51 4934.97,-1825.03 4897.87,-1710.98 4995,-1781.46 5092.13,-1710.98 5055.03,-1825.03 5152.16,-1895.51"/>
<text text-anchor="middle" x="4995" y="-1856.57" font-family="Times,serif" font-size="14.00">R/run_mcmc.R</text>
</g>
<!-- data/SPY_returns_estimation.csv&#45;&gt;R/run_mcmc.R -->
<g id="edge27" class="edge">
<title>data/SPY_returns_estimation.csv&#45;&gt;R/run_mcmc.R</title>
<path fill="none" stroke="black" d="M4995,-2045.49C4995,-2038.57 4995,-2029.9 4995,-2020.11"/>
<polygon fill="black" stroke="black" points="4998.5,-2019.97 4995,-2009.97 4991.5,-2019.97 4998.5,-2019.97"/>
</g>
<!-- data/cond_likes/lw_aux_prior.txt -->
<g id="node15" class="node">
<title>data/cond_likes/lw_aux_prior.txt</title>
<ellipse fill="none" stroke="black" cx="1962" cy="-532.06" rx="159.47" ry="18"/>
<text text-anchor="middle" x="1962" y="-528.36" font-family="Times,serif" font-size="14.00">data/cond_likes/lw_aux_prior.txt</text>
</g>
<!-- R/run_conditional_likes.R&#45;&gt;data/cond_likes/lw_aux_prior.txt -->
<g id="edge19" class="edge">
<title>R/run_conditional_likes.R&#45;&gt;data/cond_likes/lw_aux_prior.txt</title>
<path fill="none" stroke="black" d="M3397.45,-803.81C3079.18,-743.78 2310.86,-598.86 2050.21,-549.7"/>
<polygon fill="black" stroke="black" points="2050.51,-546.19 2040.04,-547.78 2049.21,-553.07 2050.51,-546.19"/>
</g>
<!-- data/cond_likes/lw_aux_csv.txt -->
<g id="node16" class="node">
<title>data/cond_likes/lw_aux_csv.txt</title>
<ellipse fill="none" stroke="black" cx="2290" cy="-532.06" rx="150.57" ry="18"/>
<text text-anchor="middle" x="2290" y="-528.36" font-family="Times,serif" font-size="14.00">data/cond_likes/lw_aux_csv.txt</text>
</g>
<!-- R/run_conditional_likes.R&#45;&gt;data/cond_likes/lw_aux_csv.txt -->
<g id="edge20" class="edge">
<title>R/run_conditional_likes.R&#45;&gt;data/cond_likes/lw_aux_csv.txt</title>
<path fill="none" stroke="black" d="M3404.74,-798.57C3142.73,-736.17 2568.26,-599.34 2363.94,-550.67"/>
<polygon fill="black" stroke="black" points="2364.74,-547.26 2354.2,-548.35 2363.12,-554.07 2364.74,-547.26"/>
</g>
<!-- data/cond_likes/lw2_prior.txt -->
<g id="node17" class="node">
<title>data/cond_likes/lw2_prior.txt</title>
<ellipse fill="none" stroke="black" cx="2602" cy="-532.06" rx="143.77" ry="18"/>
<text text-anchor="middle" x="2602" y="-528.36" font-family="Times,serif" font-size="14.00">data/cond_likes/lw2_prior.txt</text>
</g>
<!-- R/run_conditional_likes.R&#45;&gt;data/cond_likes/lw2_prior.txt -->
<g id="edge21" class="edge">
<title>R/run_conditional_likes.R&#45;&gt;data/cond_likes/lw2_prior.txt</title>
<path fill="none" stroke="black" d="M3414.67,-791.15C3211.14,-726.51 2812.46,-599.9 2661.68,-552.01"/>
<polygon fill="black" stroke="black" points="2662.7,-548.67 2652.11,-548.97 2660.58,-555.34 2662.7,-548.67"/>
</g>
<!-- data/cond_likes/lw2_csv.txt -->
<g id="node18" class="node">
<title>data/cond_likes/lw2_csv.txt</title>
<ellipse fill="none" stroke="black" cx="2899" cy="-532.06" rx="135.68" ry="18"/>
<text text-anchor="middle" x="2899" y="-528.36" font-family="Times,serif" font-size="14.00">data/cond_likes/lw2_csv.txt</text>
</g>
<!-- R/run_conditional_likes.R&#45;&gt;data/cond_likes/lw2_csv.txt -->
<g id="edge22" class="edge">
<title>R/run_conditional_likes.R&#45;&gt;data/cond_likes/lw2_csv.txt</title>
<path fill="none" stroke="black" d="M3429.96,-780.06C3287.58,-713.82 3043.5,-600.28 2943.6,-553.81"/>
<polygon fill="black" stroke="black" points="2944.94,-550.57 2934.39,-549.52 2941.98,-556.92 2944.94,-550.57"/>
</g>
<!-- data/cond_likes/swarm_prior.txt -->
<g id="node19" class="node">
<title>data/cond_likes/swarm_prior.txt</title>
<ellipse fill="none" stroke="black" cx="3211" cy="-532.06" rx="158.67" ry="18"/>
<text text-anchor="middle" x="3211" y="-528.36" font-family="Times,serif" font-size="14.00">data/cond_likes/swarm_prior.txt</text>
</g>
<!-- R/run_conditional_likes.R&#45;&gt;data/cond_likes/swarm_prior.txt -->
<g id="edge23" class="edge">
<title>R/run_conditional_likes.R&#45;&gt;data/cond_likes/swarm_prior.txt</title>
<path fill="none" stroke="black" d="M3424.09,-726.77C3356.87,-665.66 3277.3,-593.33 3237.08,-556.76"/>
<polygon fill="black" stroke="black" points="3239.33,-554.08 3229.57,-549.94 3234.62,-559.26 3239.33,-554.08"/>
</g>
<!-- data/cond_likes/swarm_csv.txt -->
<g id="node20" class="node">
<title>data/cond_likes/swarm_csv.txt</title>
<ellipse fill="none" stroke="black" cx="3538" cy="-532.06" rx="150.27" ry="18"/>
<text text-anchor="middle" x="3538" y="-528.36" font-family="Times,serif" font-size="14.00">data/cond_likes/swarm_csv.txt</text>
</g>
<!-- R/run_conditional_likes.R&#45;&gt;data/cond_likes/swarm_csv.txt -->
<g id="edge24" class="edge">
<title>R/run_conditional_likes.R&#45;&gt;data/cond_likes/swarm_csv.txt</title>
<path fill="none" stroke="black" d="M3538,-701.66C3538,-648.94 3538,-592.8 3538,-560.44"/>
<polygon fill="black" stroke="black" points="3541.5,-560.41 3538,-550.41 3534.5,-560.41 3541.5,-560.41"/>
</g>
<!-- data/cond_likes/pf_est.txt -->
<g id="node21" class="node">
<title>data/cond_likes/pf_est.txt</title>
<ellipse fill="none" stroke="black" cx="3835" cy="-532.06" rx="128.88" ry="18"/>
<text text-anchor="middle" x="3835" y="-528.36" font-family="Times,serif" font-size="14.00">data/cond_likes/pf_est.txt</text>
</g>
<!-- R/run_conditional_likes.R&#45;&gt;data/cond_likes/pf_est.txt -->
<g id="edge25" class="edge">
<title>R/run_conditional_likes.R&#45;&gt;data/cond_likes/pf_est.txt</title>
<path fill="none" stroke="black" d="M3656.66,-711.55C3713.74,-654.42 3776.96,-591.15 3810.67,-557.41"/>
<polygon fill="black" stroke="black" points="3813.2,-559.83 3817.79,-550.28 3808.25,-554.88 3813.2,-559.83"/>
</g>
<!-- cpp_program -->
<g id="node14" class="node">
<title>cpp_program</title>
<ellipse fill="none" stroke="black" cx="4742" cy="-2063.66" rx="71.49" ry="18"/>
<text text-anchor="middle" x="4742" y="-2059.96" font-family="Times,serif" font-size="14.00">cpp_program</text>
</g>
<!-- cpp_program&#45;&gt;R/run_conditional_likes.R -->
<g id="edge11" class="edge">
<title>cpp_program&#45;&gt;R/run_conditional_likes.R</title>
<path fill="none" stroke="black" d="M4671.39,-2060.42C4084.56,-2041.37 38,-1901.15 38,-1657.87 38,-1657.87 38,-1657.87 38,-1392.72 38,-1267.92 -30.69,-1201.37 57,-1112.57 289.26,-877.36 2652.07,-839.51 3346.84,-833.46"/>
<polygon fill="black" stroke="black" points="3346.98,-836.96 3356.95,-833.37 3346.92,-829.96 3346.98,-836.96"/>
</g>
<!-- cpp_program&#45;&gt;R/run_mcmc.R -->
<g id="edge26" class="edge">
<title>cpp_program&#45;&gt;R/run_mcmc.R</title>
<path fill="none" stroke="black" d="M4768.49,-2046.86C4784.87,-2036.77 4806.11,-2023.1 4824,-2009.66 4868.85,-1975.97 4916.83,-1933.73 4950.52,-1902.94"/>
<polygon fill="black" stroke="black" points="4952.91,-1905.5 4957.91,-1896.16 4948.18,-1900.34 4952.91,-1905.5"/>
</g>
<!-- cpp_program&#45;&gt;R/run_state_ests.R -->
<g id="edge37" class="edge">
<title>cpp_program&#45;&gt;R/run_state_ests.R</title>
<path fill="none" stroke="black" d="M4747,-2045.48C4762.7,-1989.93 4810,-1810.01 4810,-1657.87 4810,-1657.87 4810,-1657.87 4810,-1392.72 4810,-1267.92 4838.91,-1227.8 4791,-1112.57 4751.63,-1017.89 4666.81,-933.09 4607.85,-882.18"/>
<polygon fill="black" stroke="black" points="4609.95,-879.37 4600.07,-875.53 4605.4,-884.69 4609.95,-879.37"/>
</g>
<!-- R/vis_conditional_likes.R -->
<g id="node35" class="node">
<title>R/vis_conditional_likes.R</title>
<polygon fill="none" stroke="black" points="3150.16,-295.46 2958.29,-295.46 2899,-478.09 2839.71,-295.46 2647.84,-295.46 2803.06,-182.6 2743.77,0.03 2899,-112.84 3054.23,0.03 2994.94,-182.6 3150.16,-295.46"/>
<text text-anchor="middle" x="2899" y="-235.33" font-family="Times,serif" font-size="14.00">R/vis_conditional_likes.R</text>
</g>
<!-- data/cond_likes/lw_aux_prior.txt&#45;&gt;R/vis_conditional_likes.R -->
<g id="edge49" class="edge">
<title>data/cond_likes/lw_aux_prior.txt&#45;&gt;R/vis_conditional_likes.R</title>
<path fill="none" stroke="black" d="M2013.71,-515C2144.13,-474.49 2491.64,-366.56 2710.46,-298.59"/>
<polygon fill="black" stroke="black" points="2711.62,-301.89 2720.13,-295.59 2709.54,-295.21 2711.62,-301.89"/>
</g>
<!-- data/cond_likes/lw_aux_csv.txt&#45;&gt;R/vis_conditional_likes.R -->
<g id="edge50" class="edge">
<title>data/cond_likes/lw_aux_csv.txt&#45;&gt;R/vis_conditional_likes.R</title>
<path fill="none" stroke="black" d="M2324.93,-514.37C2410.13,-473.65 2631.99,-367.63 2773.62,-299.95"/>
<polygon fill="black" stroke="black" points="2775.32,-303.01 2782.84,-295.54 2772.3,-296.7 2775.32,-303.01"/>
</g>
<!-- data/cond_likes/lw2_prior.txt&#45;&gt;R/vis_conditional_likes.R -->
<g id="edge51" class="edge">
<title>data/cond_likes/lw2_prior.txt&#45;&gt;R/vis_conditional_likes.R</title>
<path fill="none" stroke="black" d="M2619.25,-514.16C2659.92,-474.3 2763.58,-372.73 2832.65,-305.05"/>
<polygon fill="black" stroke="black" points="2835.36,-307.29 2840.05,-297.79 2830.46,-302.29 2835.36,-307.29"/>
</g>
<!-- data/cond_likes/lw2_csv.txt&#45;&gt;R/vis_conditional_likes.R -->
<g id="edge52" class="edge">
<title>data/cond_likes/lw2_csv.txt&#45;&gt;R/vis_conditional_likes.R</title>
<path fill="none" stroke="black" d="M2899,-513.73C2899,-506.94 2899,-498.4 2899,-488.58"/>
<polygon fill="black" stroke="black" points="2902.5,-488.35 2899,-478.35 2895.5,-488.35 2902.5,-488.35"/>
</g>
<!-- data/cond_likes/swarm_prior.txt&#45;&gt;R/vis_conditional_likes.R -->
<g id="edge53" class="edge">
<title>data/cond_likes/swarm_prior.txt&#45;&gt;R/vis_conditional_likes.R</title>
<path fill="none" stroke="black" d="M3192.88,-514.16C3149.62,-473.81 3038.56,-370.21 2966.04,-302.56"/>
<polygon fill="black" stroke="black" points="2968.41,-299.99 2958.71,-295.72 2963.63,-305.1 2968.41,-299.99"/>
</g>
<!-- data/cond_likes/swarm_csv.txt&#45;&gt;R/vis_conditional_likes.R -->
<g id="edge54" class="edge">
<title>data/cond_likes/swarm_csv.txt&#45;&gt;R/vis_conditional_likes.R</title>
<path fill="none" stroke="black" d="M3501.81,-514.58C3412.66,-473.98 3178.89,-367.51 3030.05,-299.72"/>
<polygon fill="black" stroke="black" points="3031.36,-296.47 3020.81,-295.51 3028.46,-302.84 3031.36,-296.47"/>
</g>
<!-- data/cond_likes/pf_est.txt&#45;&gt;R/vis_conditional_likes.R -->
<g id="edge55" class="edge">
<title>data/cond_likes/pf_est.txt&#45;&gt;R/vis_conditional_likes.R</title>
<path fill="none" stroke="black" d="M3784.68,-515.41C3655.4,-475.22 3306.47,-366.72 3087.14,-298.53"/>
<polygon fill="black" stroke="black" points="3088.04,-295.14 3077.45,-295.51 3085.96,-301.83 3088.04,-295.14"/>
</g>
<!-- R/run_mcmc.R&#45;&gt;data/param_samples.csv -->
<g id="edge28" class="edge">
<title>R/run_mcmc.R&#45;&gt;data/param_samples.csv</title>
<path fill="none" stroke="black" d="M4914.27,-1840.05C4749.58,-1800.84 4377.25,-1712.21 4220.59,-1674.92"/>
<polygon fill="black" stroke="black" points="4221.13,-1671.45 4210.59,-1672.54 4219.51,-1678.26 4221.13,-1671.45"/>
</g>
<!-- data/param_samples.csv.bck -->
<g id="node23" class="node">
<title>data/param_samples.csv.bck</title>
<ellipse fill="none" stroke="black" cx="4988" cy="-1656.87" rx="141.88" ry="18"/>
<text text-anchor="middle" x="4988" y="-1653.17" font-family="Times,serif" font-size="14.00">data/param_samples.csv.bck</text>
</g>
<!-- R/run_mcmc.R&#45;&gt;data/param_samples.csv.bck -->
<g id="edge29" class="edge">
<title>R/run_mcmc.R&#45;&gt;data/param_samples.csv.bck</title>
<path fill="none" stroke="black" d="M4992.22,-1779.38C4991.06,-1746.05 4989.8,-1709.54 4988.95,-1685.33"/>
<polygon fill="black" stroke="black" points="4992.44,-1685 4988.6,-1675.13 4985.45,-1685.24 4992.44,-1685"/>
</g>
<!-- data/mcmc_time_taken.txt -->
<g id="node24" class="node">
<title>data/mcmc_time_taken.txt</title>
<ellipse fill="none" stroke="black" cx="5281" cy="-1656.87" rx="133.48" ry="18"/>
<text text-anchor="middle" x="5281" y="-1653.17" font-family="Times,serif" font-size="14.00">data/mcmc_time_taken.txt</text>
</g>
<!-- R/run_mcmc.R&#45;&gt;data/mcmc_time_taken.txt -->
<g id="edge30" class="edge">
<title>R/run_mcmc.R&#45;&gt;data/mcmc_time_taken.txt</title>
<path fill="none" stroke="black" d="M5058.47,-1814.57C5117.38,-1773.09 5202.68,-1713.03 5248.68,-1680.63"/>
<polygon fill="black" stroke="black" points="5250.9,-1683.35 5257.07,-1674.73 5246.87,-1677.62 5250.9,-1683.35"/>
</g>
<!-- data/state_estimates/lw_aux_prior.txt -->
<g id="node26" class="node">
<title>data/state_estimates/lw_aux_prior.txt</title>
<ellipse fill="none" stroke="black" cx="4166" cy="-532.06" rx="184.67" ry="18"/>
<text text-anchor="middle" x="4166" y="-528.36" font-family="Times,serif" font-size="14.00">data/state_estimates/lw_aux_prior.txt</text>
</g>
<!-- R/run_state_ests.R&#45;&gt;data/state_estimates/lw_aux_prior.txt -->
<g id="edge39" class="edge">
<title>R/run_state_ests.R&#45;&gt;data/state_estimates/lw_aux_prior.txt</title>
<path fill="none" stroke="black" d="M4462.76,-765.82C4378.69,-699.88 4252.61,-600.99 4195.73,-556.37"/>
<polygon fill="black" stroke="black" points="4197.56,-553.36 4187.53,-549.94 4193.24,-558.87 4197.56,-553.36"/>
</g>
<!-- data/state_estimates/lw_aux_csv.txt -->
<g id="node27" class="node">
<title>data/state_estimates/lw_aux_csv.txt</title>
<ellipse fill="none" stroke="black" cx="4545" cy="-532.06" rx="176.27" ry="18"/>
<text text-anchor="middle" x="4545" y="-528.36" font-family="Times,serif" font-size="14.00">data/state_estimates/lw_aux_csv.txt</text>
</g>
<!-- R/run_state_ests.R&#45;&gt;data/state_estimates/lw_aux_csv.txt -->
<g id="edge40" class="edge">
<title>R/run_state_ests.R&#45;&gt;data/state_estimates/lw_aux_csv.txt</title>
<path fill="none" stroke="black" d="M4545,-732.57C4545,-672.35 4545,-599.46 4545,-560.6"/>
<polygon fill="black" stroke="black" points="4548.5,-560.14 4545,-550.14 4541.5,-560.14 4548.5,-560.14"/>
</g>
<!-- data/state_estimates/lw2_prior.txt -->
<g id="node28" class="node">
<title>data/state_estimates/lw2_prior.txt</title>
<ellipse fill="none" stroke="black" cx="4908" cy="-532.06" rx="168.97" ry="18"/>
<text text-anchor="middle" x="4908" y="-528.36" font-family="Times,serif" font-size="14.00">data/state_estimates/lw2_prior.txt</text>
</g>
<!-- R/run_state_ests.R&#45;&gt;data/state_estimates/lw2_prior.txt -->
<g id="edge41" class="edge">
<title>R/run_state_ests.R&#45;&gt;data/state_estimates/lw2_prior.txt</title>
<path fill="none" stroke="black" d="M4628.28,-762.12C4708.55,-696.39 4825.5,-600.62 4879.15,-556.69"/>
<polygon fill="black" stroke="black" points="4881.68,-559.14 4887.2,-550.09 4877.25,-553.72 4881.68,-559.14"/>
</g>
<!-- data/state_estimates/lw2_csv.txt -->
<g id="node29" class="node">
<title>data/state_estimates/lw2_csv.txt</title>
<ellipse fill="none" stroke="black" cx="5256" cy="-532.06" rx="161.37" ry="18"/>
<text text-anchor="middle" x="5256" y="-528.36" font-family="Times,serif" font-size="14.00">data/state_estimates/lw2_csv.txt</text>
</g>
<!-- R/run_state_ests.R&#45;&gt;data/state_estimates/lw2_csv.txt -->
<g id="edge42" class="edge">
<title>R/run_state_ests.R&#45;&gt;data/state_estimates/lw2_csv.txt</title>
<path fill="none" stroke="black" d="M4630.41,-794.61C4780.75,-731.75 5088.02,-603.29 5207.22,-553.46"/>
<polygon fill="black" stroke="black" points="5208.6,-556.67 5216.48,-549.58 5205.9,-550.21 5208.6,-556.67"/>
</g>
<!-- data/state_estimates/swarm_prior.txt -->
<g id="node30" class="node">
<title>data/state_estimates/swarm_prior.txt</title>
<ellipse fill="none" stroke="black" cx="5619" cy="-532.06" rx="183.87" ry="18"/>
<text text-anchor="middle" x="5619" y="-528.36" font-family="Times,serif" font-size="14.00">data/state_estimates/swarm_prior.txt</text>
</g>
<!-- R/run_state_ests.R&#45;&gt;data/state_estimates/swarm_prior.txt -->
<g id="edge43" class="edge">
<title>R/run_state_ests.R&#45;&gt;data/state_estimates/swarm_prior.txt</title>
<path fill="none" stroke="black" d="M4642.68,-803.28C4857.59,-743.8 5366.9,-602.84 5551.06,-551.86"/>
<polygon fill="black" stroke="black" points="5552.19,-555.18 5560.89,-549.14 5550.32,-548.44 5552.19,-555.18"/>
</g>
<!-- data/state_estimates/swarm_csv.txt -->
<g id="node31" class="node">
<title>data/state_estimates/swarm_csv.txt</title>
<ellipse fill="none" stroke="black" cx="5996" cy="-532.06" rx="175.47" ry="18"/>
<text text-anchor="middle" x="5996" y="-528.36" font-family="Times,serif" font-size="14.00">data/state_estimates/swarm_csv.txt</text>
</g>
<!-- R/run_state_ests.R&#45;&gt;data/state_estimates/swarm_csv.txt -->
<g id="edge44" class="edge">
<title>R/run_state_ests.R&#45;&gt;data/state_estimates/swarm_csv.txt</title>
<path fill="none" stroke="black" d="M4649.94,-808.82C4924.59,-752.55 5660.6,-601.77 5911.14,-550.45"/>
<polygon fill="black" stroke="black" points="5912.18,-553.81 5921.27,-548.37 5910.77,-546.95 5912.18,-553.81"/>
</g>
<!-- data/state_estimates/pf_est.txt -->
<g id="node32" class="node">
<title>data/state_estimates/pf_est.txt</title>
<ellipse fill="none" stroke="black" cx="6344" cy="-532.06" rx="154.07" ry="18"/>
<text text-anchor="middle" x="6344" y="-528.36" font-family="Times,serif" font-size="14.00">data/state_estimates/pf_est.txt</text>
</g>
<!-- R/run_state_ests.R&#45;&gt;data/state_estimates/pf_est.txt -->
<g id="edge45" class="edge">
<title>R/run_state_ests.R&#45;&gt;data/state_estimates/pf_est.txt</title>
<path fill="none" stroke="black" d="M4654.49,-812.22C4980.67,-758.33 5942.19,-599.45 6248.86,-548.78"/>
<polygon fill="black" stroke="black" points="6249.76,-552.18 6259.06,-547.1 6248.62,-545.27 6249.76,-552.18"/>
</g>
<!-- R/vis_state_ests.R -->
<g id="node51" class="node">
<title>R/vis_state_ests.R</title>
<polygon fill="none" stroke="black" points="5447.23,-281.88 5301.14,-281.88 5256,-420.56 5210.86,-281.88 5064.77,-281.88 5182.96,-196.18 5137.81,-57.5 5256,-143.21 5374.19,-57.5 5329.04,-196.18 5447.23,-281.88"/>
<text text-anchor="middle" x="5256" y="-235.33" font-family="Times,serif" font-size="14.00">R/vis_state_ests.R</text>
</g>
<!-- data/state_estimates/lw_aux_prior.txt&#45;&gt;R/vis_state_ests.R -->
<g id="edge71" class="edge">
<title>data/state_estimates/lw_aux_prior.txt&#45;&gt;R/vis_state_ests.R</title>
<path fill="none" stroke="black" d="M4226.16,-515C4388.78,-471.58 4841.54,-350.69 5089.1,-284.59"/>
<polygon fill="black" stroke="black" points="5090.15,-287.94 5098.91,-281.97 5088.34,-281.17 5090.15,-287.94"/>
</g>
<!-- data/state_estimates/lw_aux_csv.txt&#45;&gt;R/vis_state_ests.R -->
<g id="edge72" class="edge">
<title>data/state_estimates/lw_aux_csv.txt&#45;&gt;R/vis_state_ests.R</title>
<path fill="none" stroke="black" d="M4585.52,-514.47C4691.97,-470.9 4982.41,-352.02 5143.91,-285.91"/>
<polygon fill="black" stroke="black" points="5145.48,-289.05 5153.41,-282.02 5142.83,-282.57 5145.48,-289.05"/>
</g>
<!-- data/state_estimates/lw2_prior.txt&#45;&gt;R/vis_state_ests.R -->
<g id="edge73" class="edge">
<title>data/state_estimates/lw2_prior.txt&#45;&gt;R/vis_state_ests.R</title>
<path fill="none" stroke="black" d="M4928.21,-514.16C4979.89,-470.94 5118.36,-355.14 5197.81,-288.69"/>
<polygon fill="black" stroke="black" points="5200.36,-291.13 5205.78,-282.02 5195.87,-285.76 5200.36,-291.13"/>
</g>
<!-- data/state_estimates/lw2_csv.txt&#45;&gt;R/vis_state_ests.R -->
<g id="edge74" class="edge">
<title>data/state_estimates/lw2_csv.txt&#45;&gt;R/vis_state_ests.R</title>
<path fill="none" stroke="black" d="M5256,-513.73C5256,-495.68 5256,-465.33 5256,-431.26"/>
<polygon fill="black" stroke="black" points="5259.5,-431.07 5256,-421.07 5252.5,-431.07 5259.5,-431.07"/>
</g>
<!-- data/state_estimates/swarm_prior.txt&#45;&gt;R/vis_state_ests.R -->
<g id="edge75" class="edge">
<title>data/state_estimates/swarm_prior.txt&#45;&gt;R/vis_state_ests.R</title>
<path fill="none" stroke="black" d="M5597.91,-514.16C5543.9,-470.85 5398.99,-354.67 5316.19,-288.29"/>
<polygon fill="black" stroke="black" points="5318.37,-285.55 5308.38,-282.02 5313.99,-291.01 5318.37,-285.55"/>
</g>
<!-- data/state_estimates/swarm_csv.txt&#45;&gt;R/vis_state_ests.R -->
<g id="edge76" class="edge">
<title>data/state_estimates/swarm_csv.txt&#45;&gt;R/vis_state_ests.R</title>
<path fill="none" stroke="black" d="M5954.09,-514.58C5843.44,-471.06 5540.42,-351.89 5372.27,-285.76"/>
<polygon fill="black" stroke="black" points="5373.47,-282.47 5362.88,-282.07 5370.91,-288.98 5373.47,-282.47"/>
</g>
<!-- data/state_estimates/pf_est.txt&#45;&gt;R/vis_state_ests.R -->
<g id="edge77" class="edge">
<title>data/state_estimates/pf_est.txt&#45;&gt;R/vis_state_ests.R</title>
<path fill="none" stroke="black" d="M6285.12,-515.31C6123.8,-472.16 5670.31,-350.85 5422.61,-284.6"/>
<polygon fill="black" stroke="black" points="5423.36,-281.17 5412.79,-281.97 5421.55,-287.94 5423.36,-281.17"/>
</g>
<!-- R/update_csv.R&#45;&gt;data/SPY.csv -->
<g id="edge47" class="edge">
<title>R/update_csv.R&#45;&gt;data/SPY.csv</title>
<path fill="none" stroke="black" d="M5337.75,-2464.38C5337.74,-2503.92 5336.94,-2543.42 5335.33,-2568.77"/>
<polygon fill="black" stroke="black" points="5331.81,-2568.82 5334.56,-2579.05 5338.79,-2569.34 5331.81,-2568.82"/>
</g>
<!-- data/SPY.csv.bck -->
<g id="node34" class="node">
<title>data/SPY.csv.bck</title>
<ellipse fill="none" stroke="black" cx="5331" cy="-2063.66" rx="87.18" ry="18"/>
<text text-anchor="middle" x="5331" y="-2059.96" font-family="Times,serif" font-size="14.00">data/SPY.csv.bck</text>
</g>
<!-- R/update_csv.R&#45;&gt;data/SPY.csv.bck -->
<g id="edge48" class="edge">
<title>R/update_csv.R&#45;&gt;data/SPY.csv.bck</title>
<path fill="none" stroke="black" d="M5331,-2248.99C5331,-2195.61 5331,-2128.87 5331,-2092.12"/>
<polygon fill="black" stroke="black" points="5334.5,-2091.72 5331,-2081.72 5327.5,-2091.72 5334.5,-2091.72"/>
</g>
<!-- plots/pairwise_scatterplot.pdf -->
<g id="node37" class="node">
<title>plots/pairwise_scatterplot.pdf</title>
<ellipse fill="none" stroke="black" cx="842" cy="-1130.57" rx="149.47" ry="18"/>
<text text-anchor="middle" x="842" y="-1126.87" font-family="Times,serif" font-size="14.00">plots/pairwise_scatterplot.pdf</text>
</g>
<!-- R/vis_mcmc_samps.R&#45;&gt;plots/pairwise_scatterplot.pdf -->
<g id="edge57" class="edge">
<title>R/vis_mcmc_samps.R&#45;&gt;plots/pairwise_scatterplot.pdf</title>
<path fill="none" stroke="black" d="M2031.62,-1369.09C1770.56,-1316.96 1150.81,-1193.23 925.62,-1148.27"/>
<polygon fill="black" stroke="black" points="926.01,-1144.77 915.52,-1146.25 924.64,-1151.64 926.01,-1144.77"/>
</g>
<!-- plots/phi_hist.pdf -->
<g id="node38" class="node">
<title>plots/phi_hist.pdf</title>
<ellipse fill="none" stroke="black" cx="1100" cy="-1130.57" rx="90.98" ry="18"/>
<text text-anchor="middle" x="1100" y="-1126.87" font-family="Times,serif" font-size="14.00">plots/phi_hist.pdf</text>
</g>
<!-- R/vis_mcmc_samps.R&#45;&gt;plots/phi_hist.pdf -->
<g id="edge58" class="edge">
<title>R/vis_mcmc_samps.R&#45;&gt;plots/phi_hist.pdf</title>
<path fill="none" stroke="black" d="M2037.63,-1364.77C1817.85,-1310.11 1337.42,-1190.62 1164.02,-1147.49"/>
<polygon fill="black" stroke="black" points="1164.82,-1144.09 1154.28,-1145.07 1163.14,-1150.88 1164.82,-1144.09"/>
</g>
<!-- plots/mu_hist.pdf -->
<g id="node39" class="node">
<title>plots/mu_hist.pdf</title>
<ellipse fill="none" stroke="black" cx="1300" cy="-1130.57" rx="90.98" ry="18"/>
<text text-anchor="middle" x="1300" y="-1126.87" font-family="Times,serif" font-size="14.00">plots/mu_hist.pdf</text>
</g>
<!-- R/vis_mcmc_samps.R&#45;&gt;plots/mu_hist.pdf -->
<g id="edge59" class="edge">
<title>R/vis_mcmc_samps.R&#45;&gt;plots/mu_hist.pdf</title>
<path fill="none" stroke="black" d="M2044.07,-1360.17C1862.4,-1304.36 1497.45,-1192.23 1356.94,-1149.07"/>
<polygon fill="black" stroke="black" points="1357.81,-1145.67 1347.22,-1146.08 1355.75,-1152.36 1357.81,-1145.67"/>
</g>
<!-- plots/sigma_hist.pdf -->
<g id="node40" class="node">
<title>plots/sigma_hist.pdf</title>
<ellipse fill="none" stroke="black" cx="1514" cy="-1130.57" rx="104.78" ry="18"/>
<text text-anchor="middle" x="1514" y="-1126.87" font-family="Times,serif" font-size="14.00">plots/sigma_hist.pdf</text>
</g>
<!-- R/vis_mcmc_samps.R&#45;&gt;plots/sigma_hist.pdf -->
<g id="edge60" class="edge">
<title>R/vis_mcmc_samps.R&#45;&gt;plots/sigma_hist.pdf</title>
<path fill="none" stroke="black" d="M2053.75,-1353.2C1915.52,-1296.44 1665.96,-1193.97 1561.75,-1151.18"/>
<polygon fill="black" stroke="black" points="1563,-1147.91 1552.42,-1147.35 1560.34,-1154.38 1563,-1147.91"/>
</g>
<!-- plots/rho_hist.pdf -->
<g id="node41" class="node">
<title>plots/rho_hist.pdf</title>
<ellipse fill="none" stroke="black" cx="1729" cy="-1130.57" rx="92.08" ry="18"/>
<text text-anchor="middle" x="1729" y="-1126.87" font-family="Times,serif" font-size="14.00">plots/rho_hist.pdf</text>
</g>
<!-- R/vis_mcmc_samps.R&#45;&gt;plots/rho_hist.pdf -->
<g id="edge61" class="edge">
<title>R/vis_mcmc_samps.R&#45;&gt;plots/rho_hist.pdf</title>
<path fill="none" stroke="black" d="M2064.3,-1339.56C1971.99,-1282.3 1829.58,-1193.96 1764.11,-1153.35"/>
<polygon fill="black" stroke="black" points="1765.74,-1150.24 1755.4,-1147.94 1762.05,-1156.19 1765.74,-1150.24"/>
</g>
<!-- plots/phi_trace.pdf -->
<g id="node42" class="node">
<title>plots/phi_trace.pdf</title>
<ellipse fill="none" stroke="black" cx="1937" cy="-1130.57" rx="97.48" ry="18"/>
<text text-anchor="middle" x="1937" y="-1126.87" font-family="Times,serif" font-size="14.00">plots/phi_trace.pdf</text>
</g>
<!-- R/vis_mcmc_samps.R&#45;&gt;plots/phi_trace.pdf -->
<g id="edge62" class="edge">
<title>R/vis_mcmc_samps.R&#45;&gt;plots/phi_trace.pdf</title>
<path fill="none" stroke="black" d="M2036.33,-1253.35C2005.78,-1215.9 1976.02,-1179.42 1957.17,-1156.3"/>
<polygon fill="black" stroke="black" points="1959.77,-1153.95 1950.74,-1148.41 1954.34,-1158.37 1959.77,-1153.95"/>
</g>
<!-- plots/mu_trace.pdf -->
<g id="node43" class="node">
<title>plots/mu_trace.pdf</title>
<ellipse fill="none" stroke="black" cx="2150" cy="-1130.57" rx="97.48" ry="18"/>
<text text-anchor="middle" x="2150" y="-1126.87" font-family="Times,serif" font-size="14.00">plots/mu_trace.pdf</text>
</g>
<!-- R/vis_mcmc_samps.R&#45;&gt;plots/mu_trace.pdf -->
<g id="edge63" class="edge">
<title>R/vis_mcmc_samps.R&#45;&gt;plots/mu_trace.pdf</title>
<path fill="none" stroke="black" d="M2150,-1283.11C2150,-1237.56 2150,-1188.52 2150,-1158.93"/>
<polygon fill="black" stroke="black" points="2153.5,-1158.6 2150,-1148.6 2146.5,-1158.6 2153.5,-1158.6"/>
</g>
<!-- plots/sigma_trace.pdf -->
<g id="node44" class="node">
<title>plots/sigma_trace.pdf</title>
<ellipse fill="none" stroke="black" cx="2376" cy="-1130.57" rx="110.48" ry="18"/>
<text text-anchor="middle" x="2376" y="-1126.87" font-family="Times,serif" font-size="14.00">plots/sigma_trace.pdf</text>
</g>
<!-- R/vis_mcmc_samps.R&#45;&gt;plots/sigma_trace.pdf -->
<g id="edge64" class="edge">
<title>R/vis_mcmc_samps.R&#45;&gt;plots/sigma_trace.pdf</title>
<path fill="none" stroke="black" d="M2259.36,-1266.35C2295.55,-1224.53 2332.24,-1182.13 2354.56,-1156.34"/>
<polygon fill="black" stroke="black" points="2357.39,-1158.43 2361.28,-1148.57 2352.09,-1153.85 2357.39,-1158.43"/>
</g>
<!-- plots/rho_trace.pdf -->
<g id="node45" class="node">
<title>plots/rho_trace.pdf</title>
<ellipse fill="none" stroke="black" cx="2603" cy="-1130.57" rx="98.58" ry="18"/>
<text text-anchor="middle" x="2603" y="-1126.87" font-family="Times,serif" font-size="14.00">plots/rho_trace.pdf</text>
</g>
<!-- R/vis_mcmc_samps.R&#45;&gt;plots/rho_trace.pdf -->
<g id="edge65" class="edge">
<title>R/vis_mcmc_samps.R&#45;&gt;plots/rho_trace.pdf</title>
<path fill="none" stroke="black" d="M2234.14,-1344.21C2333.27,-1287.07 2493.59,-1194.65 2565.73,-1153.06"/>
<polygon fill="black" stroke="black" points="2567.57,-1156.04 2574.49,-1148.01 2564.07,-1149.97 2567.57,-1156.04"/>
</g>
<!-- plots/phi_acf.pdf -->
<g id="node46" class="node">
<title>plots/phi_acf.pdf</title>
<ellipse fill="none" stroke="black" cx="2807" cy="-1130.57" rx="87.18" ry="18"/>
<text text-anchor="middle" x="2807" y="-1126.87" font-family="Times,serif" font-size="14.00">plots/phi_acf.pdf</text>
</g>
<!-- R/vis_mcmc_samps.R&#45;&gt;plots/phi_acf.pdf -->
<g id="edge66" class="edge">
<title>R/vis_mcmc_samps.R&#45;&gt;plots/phi_acf.pdf</title>
<path fill="none" stroke="black" d="M2247.65,-1353.91C2390.64,-1297.07 2651.62,-1193.33 2758.95,-1150.67"/>
<polygon fill="black" stroke="black" points="2760.54,-1153.8 2768.54,-1146.86 2757.96,-1147.3 2760.54,-1153.8"/>
</g>
<!-- plots/mu_acf.pdf -->
<g id="node47" class="node">
<title>plots/mu_acf.pdf</title>
<ellipse fill="none" stroke="black" cx="2999" cy="-1130.57" rx="87.18" ry="18"/>
<text text-anchor="middle" x="2999" y="-1126.87" font-family="Times,serif" font-size="14.00">plots/mu_acf.pdf</text>
</g>
<!-- R/vis_mcmc_samps.R&#45;&gt;plots/mu_acf.pdf -->
<g id="edge67" class="edge">
<title>R/vis_mcmc_samps.R&#45;&gt;plots/mu_acf.pdf</title>
<path fill="none" stroke="black" d="M2255.81,-1360.17C2437.48,-1304.29 2802.66,-1191.97 2942.63,-1148.91"/>
<polygon fill="black" stroke="black" points="2943.78,-1152.22 2952.31,-1145.93 2941.72,-1145.53 2943.78,-1152.22"/>
</g>
<!-- plots/sigma_acf.pdf -->
<g id="node48" class="node">
<title>plots/sigma_acf.pdf</title>
<ellipse fill="none" stroke="black" cx="3204" cy="-1130.57" rx="100.18" ry="18"/>
<text text-anchor="middle" x="3204" y="-1126.87" font-family="Times,serif" font-size="14.00">plots/sigma_acf.pdf</text>
</g>
<!-- R/vis_mcmc_samps.R&#45;&gt;plots/sigma_acf.pdf -->
<g id="edge68" class="edge">
<title>R/vis_mcmc_samps.R&#45;&gt;plots/sigma_acf.pdf</title>
<path fill="none" stroke="black" d="M2262.3,-1364.9C2481.88,-1310.49 2961.99,-1191.53 3137.8,-1147.97"/>
<polygon fill="black" stroke="black" points="3138.82,-1151.33 3147.69,-1145.52 3137.14,-1144.53 3138.82,-1151.33"/>
</g>
<!-- plots/rho_acf.pdf -->
<g id="node49" class="node">
<title>plots/rho_acf.pdf</title>
<ellipse fill="none" stroke="black" cx="3410" cy="-1130.57" rx="87.99" ry="18"/>
<text text-anchor="middle" x="3410" y="-1126.87" font-family="Times,serif" font-size="14.00">plots/rho_acf.pdf</text>
</g>
<!-- R/vis_mcmc_samps.R&#45;&gt;plots/rho_acf.pdf -->
<g id="edge69" class="edge">
<title>R/vis_mcmc_samps.R&#45;&gt;plots/rho_acf.pdf</title>
<path fill="none" stroke="black" d="M2267.41,-1368.39C2525.29,-1314.94 3134.61,-1188.65 3340.58,-1145.96"/>
<polygon fill="black" stroke="black" points="3341.58,-1149.33 3350.66,-1143.87 3340.16,-1142.47 3341.58,-1149.33"/>
</g>
<!-- data/mcmc_numerical_diagnostics.txt -->
<g id="node50" class="node">
<title>data/mcmc_numerical_diagnostics.txt</title>
<ellipse fill="none" stroke="black" cx="489" cy="-1130.57" rx="185.47" ry="18"/>
<text text-anchor="middle" x="489" y="-1126.87" font-family="Times,serif" font-size="14.00">data/mcmc_numerical_diagnostics.txt</text>
</g>
<!-- R/vis_mcmc_samps.R&#45;&gt;data/mcmc_numerical_diagnostics.txt -->
<g id="edge70" class="edge">
<title>R/vis_mcmc_samps.R&#45;&gt;data/mcmc_numerical_diagnostics.txt</title>
<path fill="none" stroke="black" d="M2026.17,-1373.25C1711.04,-1323.71 883.02,-1193.52 591.97,-1147.76"/>
<polygon fill="black" stroke="black" points="592.26,-1144.26 581.84,-1146.17 591.18,-1151.18 592.26,-1144.26"/>
</g>
</g>
</svg>
